<?xml version="1.0" standalone="no"?>
<!DOCTYPE svg PUBLIC "-//W3C//DTD SVG 20010904//EN"
 "http://www.w3.org/TR/2001/REC-SVG-20010904/DTD/svg10.dtd">
<svg version="1.0" xmlns="http://www.w3.org/2000/svg"
 width="176.000000pt" height="177.000000pt" viewBox="0 0 176.000000 177.000000"
 preserveAspectRatio="xMidYMid meet">

<g transform="translate(0.000000,177.000000) scale(0.100000,-0.100000)"
fill="#000000" stroke="none">
<path d="M795 1186 c-48 -12 -125 -42 -125 -48 0 -2 43 -1 96 1 138 5 228 -16
306 -71 14 -10 21 -8 42 15 17 18 35 27 58 27 32 1 31 2 -24 31 -108 55 -243
72 -353 45z"/>
<path d="M835 1035 c-14 -13 -25 -30 -25 -37 0 -27 31 -58 58 -58 69 1 92 78
32 110 -28 15 -38 13 -65 -15z"/>
<path d="M1265 1020 c0 -45 -27 -80 -61 -80 l-23 0 26 -57 c23 -50 27 -72 27
-163 1 -81 -3 -116 -18 -155 -42 -108 -117 -188 -225 -238 -61 -29 -74 -32
-171 -32 -58 0 -121 3 -140 7 -34 7 -35 7 -10 -7 14 -8 56 -24 93 -36 91 -28
253 -23 336 10 136 55 236 161 282 298 27 83 29 216 4 294 -19 59 -74 156
-102 182 -18 15 -18 14 -18 -23z"/>
<path d="M950 667 c0 -4 15 -16 33 -28 40 -25 91 -19 124 13 l23 23 -90 0
c-50 0 -90 -3 -90 -8z"/>
</g>
</svg>
